# Blender v2.81 (sub 16) OBJ File: 'arrow.blend'
# www.blender.org
mtllib arrow.mtl
o Cube
v 0.128523 0.257045 -0.000000
v 0.128523 -0.000000 -0.000000
v 0.128523 0.257045 0.500000
v 0.128523 -0.000000 0.500000
v -0.128523 0.257045 -0.000000
v -0.128523 -0.000000 -0.000000
v -0.128522 0.257045 0.500000
v -0.128522 -0.000000 0.500000
v -0.000000 0.128522 -0.500000
v -0.209548 -0.081025 -0.000000
v -0.209548 0.338070 -0.000000
v 0.209548 -0.081025 -0.000000
v 0.209548 0.338070 -0.000000
vt 0.625000 0.500000
vt 0.875000 0.500000
vt 0.875000 0.750000
vt 0.625000 0.750000
vt 0.375000 0.750000
vt 0.625000 1.000000
vt 0.375000 1.000000
vt 0.375000 0.000000
vt 0.625000 0.000000
vt 0.625000 0.250000
vt 0.375000 0.250000
vt 0.125000 0.500000
vt 0.375000 0.500000
vt 0.125000 0.750000
vt 0.625000 0.250000
vt 0.375000 0.250000
vt 0.375000 0.500000
vt 0.125000 0.500000
vt 0.375000 0.500000
vt 0.375000 0.250000
vt 0.625000 0.500000
vt 0.625000 0.500000
vt 0.875000 0.500000
vt 0.875000 0.500000
vn 0.0000 1.0000 0.0000
vn 0.0000 0.0000 1.0000
vn -1.0000 0.0000 0.0000
vn 0.0000 -1.0000 0.0000
vn 1.0000 0.0000 -0.0000
vn 0.0000 -0.9223 -0.3865
vn -0.9223 0.0000 -0.3865
vn 0.9223 0.0000 -0.3865
vn 0.0000 0.9223 -0.3865
usemtl Material
s off
f 1/1/1 5/2/1 7/3/1 3/4/1
f 4/5/2 3/4/2 7/6/2 8/7/2
f 8/8/3 7/9/3 5/10/3 6/11/3
f 6/12/4 2/13/4 4/5/4 8/14/4
f 2/13/5 1/1/5 3/4/5 4/5/5
f 6/11/2 5/10/2 11/15/2 10/16/2
f 12/17/6 10/18/6 9/19/6
f 10/16/7 11/15/7 9/20/7
f 13/21/8 12/17/8 9/22/8
f 11/23/9 13/21/9 9/24/9
f 5/2/2 1/1/2 13/21/2 11/23/2
f 1/1/2 2/13/2 12/17/2 13/21/2
f 2/13/2 6/12/2 10/18/2 12/17/2
